<svg xmlns="http://www.w3.org/2000/svg" viewBox="0 0 598.78 598.89"><defs><style>.cls-1{fill:#3bd9ea;}</style></defs><g id="Layer_2" data-name="Layer 2"><g id="Layer_1-2" data-name="Layer 1"><path class="cls-1" d="M598.78,299.34c0,165.35-134,299.55-299.34,299.55a38.19,38.19,0,0,1-5.12-.22A298.26,298.26,0,0,1,56.86,474.93,290,290,0,0,1,16.58,397.7,294.23,294.23,0,0,1,.11,299.34a287.31,287.31,0,0,1,1.56-31.16V268A274.08,274.08,0,0,1,7,234.57c1.78-7.56,3.56-14.91,5.78-22.25,2.23-7.12,4.68-14.25,7.35-20.92a1.15,1.15,0,0,1,.44-.89,216,216,0,0,1,8.9-20.7C32.6,163.13,36.16,156.46,40,150c0-.22.22-.44.22-.67,3.78-6.23,7.56-12.46,11.57-18.47,4.45-6.23,8.9-12.24,13.58-18.25,3.11-3.78,6.45-7.56,9.57-11.13a5.21,5.21,0,0,1,1.55-1.55A65.21,65.21,0,0,1,82.9,92.8c.22-.22.22-.44.44-.44,4-4.23,8.24-8.46,12.69-12.46,2.67-2.45,5.56-5.12,8.46-7.57A288.21,288.21,0,0,1,160.12,34.5c3.34-1.78,6.68-3.56,10-5.12,3.78-1.78,7.57-3.56,11.57-5.34,3.12-1.34,6.23-2.67,9.35-3.79,2.45-.89,4.67-1.78,7.12-2.67,3.78-1.33,7.57-2.67,11.35-3.78,4-1.34,8.24-2.45,12.24-3.56C226,9.12,230,8,234.23,7.12,242,5.34,250,4,258.05,2.89h.44l80.12-.22c5.57.67,11.13,1.56,16.47,2.67a186.16,186.16,0,0,1,19.36,4.23c5.12,1.33,10.24,2.67,15.36,4.23l2,.67c6.9,2.22,13.8,4.89,20.48,7.56h.22c6.9,2.9,13.58,6,20.25,9.35s13.13,6.9,19.59,10.68S465,49.85,471,54.08c6,49.41,3.56,79.68-5.56,97.48a39.11,39.11,0,0,1-4.9,7.79,10.8,10.8,0,0,1-1.56,1.78c-1.33,1.33-2.67,2.67-4,3.78a20.22,20.22,0,0,1-4.45,3.12c-18.92,11.57-48.07,7.34-84.13,3.11-21.59-2.44-45.62-5.11-71.22-4.22-122,4-123.07,82.34-123.07,84.79a142.72,142.72,0,0,0-.67,16.91c0,4,.23,8,.45,12,.22,3.34.44,6.68.67,9.79A178.25,178.25,0,0,0,177,315.14c.89,3.56,1.78,6.9,2.89,10.46A115.21,115.21,0,0,0,183.71,337c.9,2.44,1.79,4.67,2.67,6.9a191.21,191.21,0,0,0,12.25,24.25c1.78,2.9,3.56,5.79,5.56,8.68,1.78,2.67,3.56,5.34,5.56,7.79a158.37,158.37,0,0,0,16.69,19.81,110.08,110.08,0,0,0,10.24,10c4.23,3.78,8.46,7.34,12.91,10.68,0,0,42.29,45.84-29.15,76.33a6.82,6.82,0,0,0,1.78.45c.22.22.66.22.89.44a3.64,3.64,0,0,1,1.55.23c.23,0,.23.22.45.22,2.45.44,5.79,1.33,9.79,1.78,1.78.22,3.56.67,5.57.89,1.11,0,2.44.44,3.78.44,39.84,4.23,116.39-2.22,126.41-110.6,7.12-79,69.66-122,126-144.89a361.17,361.17,0,0,1,60.32-18.69,287.7,287.7,0,0,1,32.71-6A298.14,298.14,0,0,1,598.78,299.34Z"/><path class="cls-1" d="M249.54,425s42.23,46-29.21,76.49a13.62,13.62,0,0,0,2,.42,20.79,20.79,0,0,0,2.31.73c-7.67-1.05-121-19.22-208.13-105A298.31,298.31,0,0,1,0,299.42a304.24,304.24,0,0,1,1.58-31.2V268A269,269,0,0,1,7,234.6C33.73,113.66,133.75,20.05,258.15,2.92c-157.71,108-106.43,268.45-72,340.42.11.11.11.32.31.53A184.31,184.31,0,0,0,206,379.59l.63,1A195.56,195.56,0,0,0,249.54,425Z"/><path class="cls-1" d="M471,54.08q-9-6.34-18.69-12c-6.46-3.78-12.91-7.34-19.59-10.68S419.4,24.93,412.5,22h-.22c-6.68-2.67-13.58-5.34-20.48-7.56l-2-.67c-5.12-1.56-10.24-2.9-15.36-4.23a186.16,186.16,0,0,0-19.36-4.23c-5.34-1.11-10.9-2-16.47-2.67A282.29,282.29,0,0,0,299.44,0a277.64,277.64,0,0,0-40.95,2.89h-.44C100.48,110.83,151.67,271.29,186.16,343.4c-.89-2.22-1.78-4.23-2.45-6.45a115.21,115.21,0,0,1-3.78-11.35c-1.11-3.34-2-6.9-2.89-10.46a178.25,178.25,0,0,1-4.45-24.71c-.23-3.11-.67-6.45-.67-9.79-.22-4-.45-8-.45-12a142.72,142.72,0,0,1,.67-16.91c0-2.45,1.11-80.79,123.07-84.79h5.35c23.59-.45,45.84,2,65.87,4.22,36.06,4.23,65.21,8.46,84.13-3.11a20.22,20.22,0,0,0,4.45-3.12c1.33-1.11,2.67-2.45,4-3.78a10.8,10.8,0,0,0,1.56-1.78,39.11,39.11,0,0,0,4.9-7.79C474.59,133.76,477,103.49,471,54.08Z"/></g></g></svg>