<svg xmlns="http://www.w3.org/2000/svg" viewBox="0 0 2663.77 1520.33"><defs><style>.cls-1{fill:#0a0a0f;}</style></defs><g id="Layer_2" data-name="Layer 2"><g id="Layer_1-2" data-name="Layer 1"><path class="cls-1" d="M1686.17,424.73c0,234.63-190.1,425.05-424.73,425.05a52.82,52.82,0,0,1-7.26-.32A423.22,423.22,0,0,1,917.24,673.89a411.6,411.6,0,0,1-57.16-109.58c-15.47-43.9-23.37-90.63-23.37-139.58a410.17,410.17,0,0,1,2.21-44.21v-.32a390.43,390.43,0,0,1,7.58-47.36c2.53-10.74,5-21.16,8.21-31.58,3.16-10.11,6.63-20.21,10.42-29.69a1.66,1.66,0,0,1,.63-1.26,305.1,305.1,0,0,1,12.64-29.37c4.42-9.47,9.47-18.94,14.84-28.1,0-.32.31-.63.31-1,5.37-8.84,10.74-17.68,16.42-26.21,6.32-8.84,12.64-17.37,19.27-25.89,4.42-5.37,9.15-10.74,13.57-15.79a7.43,7.43,0,0,1,2.22-2.21,91,91,0,0,1,9.15-10.11c.32-.31.32-.63.63-.63,5.69-6,11.69-12,18-17.68,3.79-3.48,7.9-7.27,12-10.74a409.38,409.38,0,0,1,79-53.68c4.74-2.53,9.47-5.06,14.21-7.27,5.37-2.52,10.74-5,16.42-7.57,4.42-1.9,8.84-3.79,13.27-5.37,3.47-1.27,6.63-2.53,10.1-3.79,5.37-1.9,10.74-3.79,16.11-5.37,5.68-1.9,11.68-3.47,17.36-5,6-1.58,11.69-3.16,17.69-4.42,11-2.53,22.42-4.43,33.79-6h.63L1317,3.79c7.9,1,15.79,2.21,23.37,3.79a265.24,265.24,0,0,1,27.47,6c7.26,1.89,14.53,3.79,21.79,6l2.84,1c9.79,3.15,19.58,6.94,29.06,10.73h.31c9.79,4.11,19.26,8.53,28.74,13.26s18.63,9.8,27.79,15.16,18,11.06,26.52,17.06c8.53,70.1,5.06,113.05-7.89,138.31a55.1,55.1,0,0,1-7,11,15.62,15.62,0,0,1-2.21,2.53c-1.89,1.89-3.79,3.79-5.68,5.37a29,29,0,0,1-6.32,4.42c-26.84,16.42-68.21,10.42-119.37,4.42-30.63-3.47-64.73-7.26-101-6-173,5.68-174.63,116.84-174.63,120.31a205,205,0,0,0-.94,24c0,5.69.31,11.37.63,17.05.31,4.74.63,9.48.94,13.9a255.49,255.49,0,0,0,6.32,35c1.26,5.05,2.53,9.79,4.11,14.84a158.33,158.33,0,0,0,5.36,16.11c1.27,3.47,2.53,6.63,3.79,9.79a271.15,271.15,0,0,0,17.37,34.42c2.53,4.1,5,8.21,7.9,12.31,2.52,3.79,5,7.58,7.89,11.06,7,10.1,15.16,19.26,23.68,28.1A155.93,155.93,0,0,0,1172.39,588c6,5.37,12,10.42,18.32,15.16,0,0,60,65.05-41.37,108.31a10,10,0,0,0,2.53.63c.31.32.94.32,1.26.64a5.46,5.46,0,0,1,2.21.31c.32,0,.32.32.63.32,3.47.63,8.21,1.89,13.89,2.52,2.53.32,5.06,1,7.9,1.27,1.58,0,3.47.63,5.37.63,56.52,6,165.15-3.16,179.36-156.95,10.11-112.1,98.84-173.05,178.74-205.57a512.08,512.08,0,0,1,85.58-26.53c28.1-6.63,46.42-8.52,46.42-8.52A423.36,423.36,0,0,1,1686.17,424.73Z"/><path class="cls-1" d="M1190.63,603s59.93,65.3-41.45,108.53a19.46,19.46,0,0,0,2.84.6,30.22,30.22,0,0,0,3.28,1C1144.41,711.69,983.55,685.9,860,564.25a423.57,423.57,0,0,1-23.4-139.39,429,429,0,0,1,2.24-44.28v-.3a383.13,383.13,0,0,1,7.75-47.41c37.86-171.59,179.79-304.42,356.3-328.72-223.77,153.25-151,380.9-102.12,483,.15.15.15.45.45.75a261.91,261.91,0,0,0,27.73,50.69c.6.89.89,1.34.89,1.34A277.61,277.61,0,0,0,1190.63,603Z"/><path class="cls-1" d="M1504.91,76.74q-12.78-9-26.52-17.06c-9.16-5.36-18.32-10.42-27.79-15.16s-18.95-9.15-28.74-13.26h-.31c-9.48-3.79-19.27-7.58-29.06-10.73l-2.84-1c-7.26-2.21-14.53-4.11-21.79-6a265.24,265.24,0,0,0-27.47-6C1332.81,6,1324.92,4.74,1317,3.79A400.05,400.05,0,0,0,1261.44,0a392.18,392.18,0,0,0-58.1,4.11h-.63c-223.58,153.15-151,380.83-102,483.15-1.27-3.16-2.53-6-3.48-9.16a158.33,158.33,0,0,1-5.36-16.11c-1.58-4.73-2.85-9.79-4.11-14.84a255.49,255.49,0,0,1-6.32-35c-.31-4.42-.94-9.16-.94-13.9-.32-5.68-.63-11.36-.63-17.05a205,205,0,0,1,.94-24c0-3.47,1.58-114.63,174.63-120.31H1263c33.47-.63,65,2.84,93.47,6,51.16,6,92.53,12,119.37-4.42a29,29,0,0,0,6.32-4.42c1.89-1.58,3.79-3.48,5.68-5.37a15.62,15.62,0,0,0,2.21-2.53,55.1,55.1,0,0,0,7-11C1510,189.79,1513.44,146.84,1504.91,76.74Z"/><path class="cls-1" d="M109.8,1492.79q-51.21-27.51-80.5-76.32T0,1306.08q0-61.55,29.3-110.39t80.5-76.35q51.18-27.51,115.12-27.51,53.84,0,97.35,18.93a195.07,195.07,0,0,1,73.09,54.44L333.81,1222q-42-48.55-104.17-48.54-38.47,0-68.66,16.87a120,120,0,0,0-47,47.05q-16.89,30.19-16.89,68.66T114,1374.74a120.08,120.08,0,0,0,47,47q30.2,16.86,68.66,16.87,62.17,0,104.17-49.14l61.55,56.83a191.91,191.91,0,0,1-73.37,55q-43.82,18.94-97.68,18.95Q161,1520.33,109.8,1492.79Z"/><path class="cls-1" d="M473.8,1497q-40-21-62.44-58.29T388.86,1354q0-47.36,22.5-84.65t62.44-58.29q39.93-21,90.23-21t90,21q39.65,21,62.14,58.29T738.64,1354q0,47.34-22.49,84.64T654,1497q-39.68,21-90,21T473.8,1497Zm148.55-78.72q22.75-24,22.77-64.21t-22.77-64.22q-22.8-24-58.32-24t-58.59,24q-23.08,24-23.08,64.22t23.08,64.21q23.09,24,58.59,24T622.35,1418.23Z"/><path class="cls-1" d="M1059.72,1225.58q36.4,35.51,36.4,105.34v182.3H1003.8V1345.14q0-37.89-16.59-56.53T939.29,1270q-34.95,0-55.64,21.6t-20.71,64.2v157.44H770.59V1194.8h88.2v37.3Q877.14,1212,904.36,1201t59.77-11Q1023.34,1190.06,1059.72,1225.58Z"/><path class="cls-1" d="M1477.87,1074.07v439.15h-88.19v-36.68q-34.34,41.43-99.43,41.42-45,0-81.37-20.12t-57.12-57.42q-20.73-37.28-20.71-86.4t20.71-86.41q20.7-37.29,57.12-57.42t81.37-20.13q61,0,95.3,38.47V1074.07Zm-113.64,344.16q23.08-24,23.08-64.21t-23.08-64.22q-23.09-24-58-24-35.51,0-58.59,24T1224.55,1354q0,40.23,23.08,64.21t58.59,24Q1341.14,1442.2,1364.23,1418.23Z"/><path class="cls-1" d="M1854.28,1194.8v318.42h-87.61v-37.88a122.11,122.11,0,0,1-43.79,31.67,137.79,137.79,0,0,1-55,11q-62.76,0-99.43-36.1t-36.71-107.12V1194.8h92.35v166.31q0,77,64.5,77,33.12,0,53.27-21.6t20.13-64.23V1194.8Z"/><path class="cls-1" d="M1915.25,1135.62q-16-14.8-16-36.71t16-36.68q16-14.81,41.42-14.8t41.42,14.21q16,14.22,16,35.51,0,23.08-16,38.17t-41.42,15.1Q1931.22,1150.42,1915.25,1135.62Zm-4.74,59.18h92.32v318.42h-92.32Z"/><path class="cls-1" d="M2264.44,1497.84q-13.62,10.07-33.45,15.08a169.29,169.29,0,0,1-41.73,5q-56.82,0-87.89-29t-31.08-85.22V1272.94h-49.11v-71h49.11v-77.55h92.35v77.55H2242v71h-79.31v129.62q0,20.12,10.35,31t29.29,11q21.91,0,37.3-11.85Z"/><path class="cls-1" d="M2417.54,1066.31H2400l-76.92,168.21h18.53l16.45-36.61,3.71-8.32,6.51-14.37,8.86-19.88,31.54-70.5,35,78.27,5.42,12.11,6.42,14.37,7.5,16.63,12.75,28.3h18.71Z"/><path class="cls-1" d="M2510.35,1066.29h17.78v168.27h-17.78Z"/><circle class="cls-1" cx="2618.27" cy="1186.21" r="45.51"/></g></g></svg>